PathFileType	4	(X/Y/Z)	/Users/itak/Documents/Research/Walk-IL/dataset/trc/00272_00010.trc
DataRate	CameraRate	NumFrames	NumMarkers	Units	OrigDataRate	OrigDataStartFrame	OrigNumFrames
100.000000	100.000000	4	53	mm	100.000000	160	640
Frame#	Time	RPSI			LPSI			L3			STRN			T10			C7			CLAV			RBAK			LBAK			LSHO			LUPA			LAEL			LAOL			LWTS			LWPS			LFRA			LIFD			LHPS			LHTS			RSHO			RUPA			RAEL			RAOL			RWTS			RWPS			RFRA			RIFD			RHTS			RHPS			RBHD			LFHD			RFHD			LBHD			LHIP			RHIP			RASI			LASI			LKNE			LTHI			LANK			LTIP			LTOE			LMT1			LMT5			LHEE			RKNE			RTHI			RTIP			RTOE			RMT1			RMT5			RHEE			RANK			
		X1	Y1	Z1	X2	Y2	Z2	X3	Y3	Z3	X4	Y4	Z4	X5	Y5	Z5	X6	Y6	Z6	X7	Y7	Z7	X8	Y8	Z8	X9	Y9	Z9	X10	Y10	Z10	X11	Y11	Z11	X12	Y12	Z12	X13	Y13	Z13	X14	Y14	Z14	X15	Y15	Z15	X16	Y16	Z16	X17	Y17	Z17	X18	Y18	Z18	X19	Y19	Z19	X20	Y20	Z20	X21	Y21	Z21	X22	Y22	Z22	X23	Y23	Z23	X24	Y24	Z24	X25	Y25	Z25	X26	Y26	Z26	X27	Y27	Z27	X28	Y28	Z28	X29	Y29	Z29	X30	Y30	Z30	X31	Y31	Z31	X32	Y32	Z32	X33	Y33	Z33	X34	Y34	Z34	X35	Y35	Z35	X36	Y36	Z36	X37	Y37	Z37	X38	Y38	Z38	X39	Y39	Z39	X40	Y40	Z40	X41	Y41	Z41	X42	Y42	Z42	X43	Y43	Z43	X44	Y44	Z44	X45	Y45	Z45	X46	Y46	Z46	X47	Y47	Z47	X48	Y48	Z48	X49	Y49	Z49	X50	Y50	Z50	X51	Y51	Z51	X52	Y52	Z52	X53	Y53	Z53	

161	1.6	781.9771118164062	990.0386962890625	116.5008163452148	784.6797485351562	981.2178955078125	-57.51452255249023	802.1092529296875	1062.361328125	25.35426902770996	1053.8818359375	1245.91650390625	22.21406936645508	788.7633666992188	1175.988159179688	23.62802314758301	825.60693359375	1420.536743164062	6.029263019561768	989.1385498046875	1346.089721679688	18.14145851135254	776.8257446289062	1283.076538085938	84.55586242675781	814.7086181640625	1384.44140625	-98.43148803710938	907.1322021484375	1394.331909179688	-146.4039916992188	886.6053466796875	1276.637084960938	-224.0646820068359	900.8609619140625	1073.892456054688	-242.4958953857422	834.084228515625	1058.726928710938	-188.5559692382812	985.4718627929688	856.31884765625	-191.8942413330078	955.9928588867188	843.2152099609375	-257.0605163574219	920.0133056640625	971.8943481445312	-251.8299560546875	995.4857177734375	669.163818359375	-192.1742248535156	963.22705078125	754.8505249023438	-254.6122589111328	1014.676330566406	758.3010864257812	-213.6211700439453	891.9698486328125	1401.805786132812	168.3756256103516	887.8998413085938	1343.316772460938	235.775634765625	899.1998291015625	1077.950927734375	290.7823486328125	853.7507934570312	1066.275512695312	204.9303131103516	1006.351257324219	860.6968383789062	229.0467071533203	973.9251098632812	854.3804321289062	307.2184448242188	929.2565307617188	1011.926635742188	300.195068359375	1023.969909667969	676.0921020507812	227.8984375	1044.207763671875	747.2692260742188	242.0204315185547	1002.89208984375	743.83154296875	298.6352844238281	844.3997802734375	1583.824096679688	80.29263305664062	1014.176818847656	1626.364990234375	-39.93648529052734	1013.408386230469	1624.482177734375	52.90341186523438	846.94970703125	1575.268920898438	-67.88053131103516	857.7160034179688	936.480224609375	-151.9207611083984	883.3255615234375	946.9451904296875	219.8301239013672	1003.690002441406	957.7618408203125	149.5554656982422	993.236328125	952.2420043945312	-101.0855484008789	971.0574951171875	482.1570739746094	-150.6923980712891	948.4819946289062	620.7586059570312	-162.2544097900391	856.0689697265625	40.72686004638672	-157.9501495361328	908.61865234375	258.390380859375	-166.388671875	1065.787231445312	27.73171234130859	-106.2413101196289	995.1987915039062	21.61678314208984	-64.99753570556641	979.5817260742188	36.72582626342773	-174.7655334472656	811.3522338867188	33.64780044555664	-98.65547943115234	959.9149169921875	475.5861511230469	181.1559906005859	965.4679565429688	738.68115234375	215.7850952148438	965.6945190429688	349.8740234375	167.0653076171875	1071.3447265625	34.59263229370117	104.5323181152344	1012.961791992188	29.3210620880127	65.10782623291016	980.7779541015625	29.3763256072998	178.6670379638672	823.3573608398438	32.53083419799805	110.4358062744141	876.7564697265625	38.15961456298828	158.9750518798828	
162	1.61	780.8615112304688	990.1090698242188	117.9878005981445	783.346435546875	980.879150390625	-56.12638854980469	801.1716918945312	1062.3203125	26.83531188964844	1053.664794921875	1245.220336914062	23.50155067443848	788.179443359375	1175.914916992188	25.23020362854004	825.7709350585938	1420.386108398438	7.818564414978027	989.182861328125	1345.575439453125	19.50848770141602	776.8671875	1283.079345703125	86.24993896484375	814.4838256835938	1384.254272460938	-96.69586181640625	906.80859375	1393.91552734375	-144.8495178222656	885.7366333007812	1276.360717773438	-222.5354919433594	899.6846923828125	1073.65087890625	-241.2468872070312	832.9498901367188	1058.441162109375	-187.1810607910156	984.3235473632812	856.0062255859375	-190.9563598632812	954.7115478515625	842.9088745117188	-256.0934753417969	918.7877807617188	971.6932983398438	-250.7610168457031	994.5429077148438	668.9195556640625	-191.2833862304688	962.0010375976562	754.6002807617188	-253.7381591796875	1013.481994628906	757.9682006835938	-212.8110504150391	892.4043579101562	1401.478759765625	169.9008483886719	888.218505859375	1342.984741210938	237.2422637939453	898.6730346679688	1077.67138671875	292.2962036132812	853.2428588867188	1066.078857421875	206.4379425048828	1005.742797851562	860.424560546875	230.3961029052734	973.2689819335938	853.9921264648438	308.5364685058594	928.6493530273438	1011.570983886719	301.6990966796875	1023.432495117188	675.8248291015625	229.0352630615234	1043.642333984375	746.99267578125	243.2503967285156	1002.281494140625	743.4658813476562	299.8286743164062	843.7991333007812	1583.450805664062	81.5677490234375	1013.332946777344	1626.305541992188	-38.90521240234375	1012.673461914062	1624.631225585938	53.92742156982422	846.2214965820312	1574.592041015625	-66.57323455810547	855.5833129882812	935.9413452148438	-150.6540374755859	881.8243408203125	947.160888671875	221.2927398681641	1002.415893554688	957.4484252929688	150.9427642822266	991.9392700195312	951.5674438476562	-99.58869171142578	973.3699951171875	482.0427551269531	-149.9381103515625	949.1962280273438	620.37255859375	-161.3104400634766	856.2069091796875	41.08698654174805	-157.9164428710938	910.030517578125	258.5704345703125	-166.2077484130859	1065.849975585938	27.67487907409668	-106.239372253418	995.2571411132812	21.61154174804688	-64.99072265625	979.6187744140625	36.73757171630859	-174.7596588134766	811.4120483398438	34.20126342773438	-98.63368225097656	959.3616943359375	475.5516967773438	181.8919219970703	964.61572265625	738.6253051757812	217.0184326171875	965.3087158203125	349.8409423828125	167.4349822998047	1071.355712890625	34.59811782836914	104.5247344970703	1012.962707519531	29.29925918579102	65.08074951171875	980.77734375	29.41720771789551	178.6454315185547	823.3732299804688	32.52002334594727	110.4050979614258	876.775634765625	38.17803573608398	158.9459991455078	
163	1.62	779.655029296875	990.2021484375	119.4837188720703	781.8319702148438	980.5128784179688	-54.74526596069336	800.1227416992188	1062.275024414062	28.33898162841797	1053.44775390625	1244.447631835938	24.76036071777344	787.568603515625	1175.811645507812	26.89151382446289	825.9606323242188	1420.205078125	9.68696117401123	989.2503662109375	1345.009399414062	20.8758487701416	776.9669189453125	1283.052124023438	88.03726196289062	814.2449951171875	1384.034301757812	-94.89569854736328	906.452392578125	1393.459716796875	-143.2558441162109	884.8189086914062	1276.044189453125	-220.9576416015625	898.459228515625	1073.350219726562	-239.9439392089844	831.7965087890625	1058.125854492188	-185.7441253662109	983.088134765625	855.6317749023438	-189.9727783203125	953.3525390625	842.558349609375	-255.0771942138672	917.4818115234375	971.4155883789062	-249.6345062255859	993.5718383789062	668.6436157226562	-190.2644958496094	960.6685791015625	754.2979736328125	-252.8231048583984	1012.170288085938	757.53515625	-211.93310546875	892.9356079101562	1401.113159179688	171.4667816162109	888.67138671875	1342.619384765625	238.7581176757812	898.1981201171875	1077.35595703125	293.8385620117188	852.7740478515625	1065.8515625	208.0060119628906	1005.112365722656	860.0945434570312	231.7723541259766	972.611572265625	853.5537719726562	309.8921508789062	928.0680541992188	1011.175048828125	303.2455139160156	1022.839294433594	675.4992065429688	230.1925201416016	1043.032958984375	746.6524658203125	244.4976806640625	1001.588256835938	743.0323486328125	301.025634765625	843.1480102539062	1582.987670898438	82.91419219970703	1012.369995117188	1626.26416015625	-37.83921813964844	1011.834899902344	1624.791625976562	54.98937225341797	845.4181518554688	1573.840576171875	-65.20236968994141	853.623779296875	935.3012084960938	-149.2917022705078	880.1474609375	947.431396484375	222.7213439941406	1001.068237304688	957.097900390625	152.3248748779297	990.5084228515625	950.8252563476562	-98.1005859375	975.8046875	481.9229125976562	-149.2202301025391	949.9758911132812	619.9707641601562	-160.3324432373047	856.3741455078125	41.50464630126953	-157.8818969726562	911.4739990234375	258.8016967773438	-166.0245666503906	1065.913330078125	27.62093162536621	-106.2396926879883	995.3099365234375	21.60640144348145	-64.99301147460938	979.6681518554688	36.75970077514648	-174.75927734375	811.4647216796875	34.85343551635742	-98.618896484375	958.672119140625	475.5223388671875	182.7008666992188	963.6591796875	738.5999145507812	218.2938995361328	964.8201904296875	349.8355407714844	167.90966796875	1071.36279296875	34.61297607421875	104.5258026123047	1012.9599609375	29.29321670532227	65.07331848144531	980.775146484375	29.4460334777832	178.6460723876953	823.36669921875	32.49711227416992	110.3892364501953	876.76904296875	38.17419815063477	158.9322204589844	
164	1.63	778.3492431640625	990.3192138671875	120.9806900024414	780.16552734375	980.111083984375	-53.35971832275391	798.9794921875	1062.227783203125	29.86878776550293	1053.226440429688	1243.594848632812	25.98492050170898	786.9559936523438	1175.677612304688	28.6182918548584	826.1664428710938	1419.9892578125	11.61801815032959	989.3375854492188	1344.386352539062	22.24112129211426	777.1159057617188	1282.991821289062	89.91181182861328	813.9966430664062	1383.790771484375	-93.03354644775391	906.0712890625	1392.969848632812	-141.6236114501953	883.8590087890625	1275.686401367188	-219.3238372802734	897.17333984375	1072.992919921875	-238.5804901123047	830.61865234375	1057.79248046875	-184.2377777099609	981.764892578125	855.205810546875	-188.9468231201172	951.9053955078125	842.1770629882812	-254.0110473632812	916.0944213867188	971.07470703125	-248.44287109375	992.5874633789062	668.3444213867188	-189.1120452880859	959.2197265625	753.95068359375	-251.8645324707031	1010.739807128906	757.0159912109375	-210.9949798583984	893.5576171875	1400.708251953125	173.0707855224609	889.2610473632812	1342.219482421875	240.3249359130859	897.7908935546875	1076.994506835938	295.3987121582031	852.339111328125	1065.591918945312	209.6327972412109	1004.463012695312	859.6945190429688	233.1748504638672	971.9618530273438	853.0611572265625	311.2886047363281	927.5258178710938	1010.734802246094	304.8298645019531	1022.168273925781	675.1001586914062	231.3700408935547	1042.36962890625	746.234130859375	245.7612152099609	1000.831359863281	742.5269165039062	302.2403869628906	842.4503173828125	1582.430297851562	84.33219146728516	1011.290771484375	1626.240478515625	-36.73992156982422	1010.895141601562	1624.95849609375	56.08698272705078	844.5430908203125	1573.015747070312	-63.76789855957031	851.859375	934.5606689453125	-147.8282165527344	878.3565063476562	947.7357177734375	224.1211853027344	999.6509399414062	956.7098999023438	153.6966247558594	988.9351806640625	950.0208740234375	-96.63097381591797	978.3504638671875	481.8235473632812	-148.5451049804688	950.7847290039062	619.5997314453125	-159.3281707763672	856.5780639648438	42.00039672851562	-157.8448181152344	912.93505859375	259.0932922363281	-165.8316192626953	1065.975830078125	27.56683540344238	-106.2386627197266	995.3579711914062	21.60388565063477	-65.00584411621094	979.7376098632812	36.79874801635742	-174.7655639648438	811.5230102539062	35.62294769287109	-98.61250305175781	957.8378295898438	475.4978332519531	183.5820159912109	962.5903930664062	738.608154296875	219.6072387695312	964.223876953125	349.8511657714844	168.4894561767578	1071.3642578125	34.63935470581055	104.5349578857422	1012.951965332031	29.3026065826416	65.0850830078125	980.7695922851562	29.46723175048828	178.6675415039062	823.3394775390625	32.46110153198242	110.3864135742188	876.7384643554688	38.1495246887207	158.9326782226562	
